<svg xmlns="http://www.w3.org/2000/svg" viewBox="0 0 29 29" width="29" height="29">
	<style>
		tspan { white-space:pre }
		.shp0 { fill: #ffffff } 
	</style>
	<path id="Shape 16" class="shp0" d="M27.3 10.96L27.3 2.71C27.3 2.33 27.05 2 26.69 1.89L25.36 1.51C21.85 0.51 18.2 0 14.51 0C10.82 0 7.16 0.51 3.65 1.51L2.33 1.89C1.96 2 1.71 2.33 1.71 2.71L1.71 10.96C0 19.67 0.01 19.47 0.01 19.65L0.01 23.05C0.01 24.16 0.72 25.1 1.71 25.46L1.71 28.15C1.71 28.62 2.09 29 2.56 29L26.45 29C26.92 29 27.3 28.62 27.3 28.15L27.3 25.46C28.29 25.1 29 24.16 29 23.05L29 19.65C29 19.42 28.87 18.96 27.3 10.96ZM3.41 3.35L4.12 3.15C10.91 1.2 18.1 1.2 24.89 3.15L25.6 3.35L25.6 10.2L23.9 10.2L23.9 8.5C23.9 6.62 22.38 5.1 20.51 5.1L17.05 5.1C16.04 5.1 15.13 5.54 14.51 6.25C13.88 5.54 12.97 5.1 11.96 5.1L8.5 5.1C6.63 5.1 5.11 6.62 5.11 8.5L5.11 10.2L3.41 10.2L3.41 3.35ZM22.21 8.5L22.21 10.2L15.35 10.2L15.35 8.5C15.35 7.56 16.12 6.8 17.05 6.8L20.51 6.8C21.44 6.8 22.21 7.56 22.21 8.5ZM13.66 8.5L13.66 10.2L6.81 10.2L6.81 8.5C6.81 7.56 7.57 6.8 8.5 6.8L11.96 6.8C12.89 6.8 13.66 7.56 13.66 8.5ZM3.26 11.89C4.43 11.89 24.67 11.89 25.75 11.89L27.12 18.8L1.89 18.8L3.26 11.89ZM25.6 27.3L3.41 27.3L3.41 25.6L25.6 25.6L25.6 27.3ZM27.3 23.05C27.3 23.52 26.92 23.9 26.45 23.9L2.56 23.9C2.09 23.9 1.71 23.52 1.71 23.05L1.71 20.5L27.3 20.5L27.3 23.05Z" />
</svg>