<svg xmlns="http://www.w3.org/2000/svg" viewBox="0 0 25 25" width="25" height="25">
	<style>
		tspan { white-space:pre }
		.shp0 { fill: #ffffff } 
	</style>
	<path id="Shape 26" class="shp0" d="M14.6 9.28C15.14 9.28 15.58 9.71 15.58 10.25C15.58 10.79 15.14 11.23 14.6 11.23C14.06 11.23 13.62 10.79 13.62 10.25C13.62 9.71 14.06 9.28 14.6 9.28ZM14.6 13.53C15.14 13.53 15.58 13.96 15.58 14.5C15.58 15.04 15.14 15.48 14.6 15.48C14.06 15.48 13.62 15.04 13.62 14.5C13.62 13.96 14.06 13.53 14.6 13.53ZM18.85 9.28C19.39 9.28 19.82 9.71 19.82 10.25C19.82 10.79 19.39 11.23 18.85 11.23C18.31 11.23 17.87 10.79 17.87 10.25C17.87 9.71 18.31 9.28 18.85 9.28ZM24.02 12.21C24.56 12.21 25 11.77 25 11.23L25 5.86C25 3.71 23.25 1.95 21.09 1.95L19.82 1.95L19.82 0.98C19.82 0.44 19.39 0 18.85 0C18.31 0 17.87 0.44 17.87 0.98L17.87 1.95L13.43 1.95L13.43 0.98C13.43 0.44 12.99 0 12.45 0C11.91 0 11.47 0.44 11.47 0.98L11.47 1.95L7.08 1.95L7.08 0.98C7.08 0.44 6.64 0 6.1 0C5.56 0 5.13 0.44 5.13 0.98L5.13 1.95L3.91 1.95C1.75 1.95 0 3.71 0 5.86L0 21.09C0 23.25 1.75 25 3.91 25L16.21 25C16.24 25 16.28 25 16.31 24.99C16.34 25 16.37 25 16.41 25C16.67 25 16.92 24.9 17.11 24.7L24.73 16.79C25 16.51 25.07 16.09 24.92 15.73C24.77 15.37 24.41 15.14 24.02 15.14L19.34 15.14C17.18 15.14 15.43 16.89 15.43 19.04L15.43 23.05L3.91 23.05C2.83 23.05 1.95 22.17 1.95 21.09L1.95 5.86C1.95 4.78 2.83 3.91 3.91 3.91L5.13 3.91L5.13 4.88C5.13 5.42 5.56 5.86 6.1 5.86C6.64 5.86 7.08 5.42 7.08 4.88L7.08 3.91L11.47 3.91L11.47 4.88C11.47 5.42 11.91 5.86 12.45 5.86C12.99 5.86 13.43 5.42 13.43 4.88L13.43 3.91L17.87 3.91L17.87 4.88C17.87 5.42 18.31 5.86 18.85 5.86C19.39 5.86 19.82 5.42 19.82 4.88L19.82 3.91L21.09 3.91C22.17 3.91 23.05 4.78 23.05 5.86L23.05 11.23C23.05 11.77 23.48 12.21 24.02 12.21ZM17.38 19.04C17.38 17.97 18.26 17.09 19.34 17.09L21.73 17.09L17.38 21.6L17.38 19.04ZM6.1 9.28C6.64 9.28 7.08 9.71 7.08 10.25C7.08 10.79 6.64 11.23 6.1 11.23C5.56 11.23 5.13 10.79 5.13 10.25C5.13 9.71 5.56 9.28 6.1 9.28ZM10.35 13.53C10.89 13.53 11.33 13.96 11.33 14.5C11.33 15.04 10.89 15.48 10.35 15.48C9.81 15.48 9.37 15.04 9.37 14.5C9.37 13.96 9.81 13.53 10.35 13.53ZM6.1 17.77C6.64 17.77 7.08 18.21 7.08 18.75C7.08 19.29 6.64 19.73 6.1 19.73C5.56 19.73 5.13 19.29 5.13 18.75C5.13 18.21 5.56 17.77 6.1 17.77ZM6.1 13.53C6.64 13.53 7.08 13.96 7.08 14.5C7.08 15.04 6.64 15.48 6.1 15.48C5.56 15.48 5.13 15.04 5.13 14.5C5.13 13.96 5.56 13.53 6.1 13.53ZM10.35 17.77C10.89 17.77 11.33 18.21 11.33 18.75C11.33 19.29 10.89 19.73 10.35 19.73C9.81 19.73 9.37 19.29 9.37 18.75C9.37 18.21 9.81 17.77 10.35 17.77ZM10.35 9.28C10.89 9.28 11.33 9.71 11.33 10.25C11.33 10.79 10.89 11.23 10.35 11.23C9.81 11.23 9.37 10.79 9.37 10.25C9.37 9.71 9.81 9.28 10.35 9.28Z" />
</svg>