<svg xmlns="http://www.w3.org/2000/svg" viewBox="0 0 25 25" width="25" height="25">
	<style>
		tspan { white-space:pre }
		.shp0 { fill: #ffffff } 
	</style>
	<path id="Shape 23" class="shp0" d="M12.5 0C5.61 0 0 5.61 0 12.5C0 19.39 5.61 25 12.5 25C19.39 25 25 19.39 25 12.5C25 5.61 19.39 0 12.5 0ZM12.5 23.02C6.7 23.02 1.98 18.3 1.98 12.5C1.98 6.7 6.7 1.98 12.5 1.98C18.3 1.98 23.02 6.7 23.02 12.5C23.02 18.3 18.3 23.02 12.5 23.02ZM12.5 14.72C8.98 14.72 5.7 16.48 3.24 19.68L4.81 20.89C6.88 18.18 9.61 16.7 12.5 16.7C15.39 16.7 18.12 18.18 20.19 20.89L21.76 19.68C19.3 16.48 16.02 14.72 12.5 14.72ZM12.5 4.49C9.66 4.49 7.35 6.81 7.35 9.66C7.35 12.52 9.66 14.84 12.5 14.84C15.34 14.84 17.65 12.52 17.65 9.66C17.65 6.81 15.34 4.49 12.5 4.49ZM12.5 12.86C10.75 12.86 9.33 11.43 9.33 9.66C9.33 7.9 10.75 6.46 12.5 6.46C14.25 6.46 15.67 7.9 15.67 9.66C15.67 11.43 14.25 12.86 12.5 12.86Z" />
</svg>