<svg xmlns="http://www.w3.org/2000/svg" viewBox="0 0 24 28" width="24" height="28">
	<style>
		tspan { white-space:pre }
		.shp0 { fill: #ffffff } 
	</style>
	<path id="Shape 24" class="shp0" d="M24 6.56L14.19 6.56L16.75 4.34C17.29 3.87 17.6 3.19 17.6 2.46C17.6 1.1 16.52 0 15.2 0C14.15 0 13.23 0.69 12.91 1.72L12 4.67L11.09 1.72C10.77 0.69 9.85 0 8.8 0C7.48 0 6.4 1.1 6.4 2.46C6.4 3.19 6.71 3.87 7.25 4.34L9.81 6.56L0 6.56L0 22.97L9.6 22.97L9.6 28L12 25.54L14.4 28L14.4 22.97L24 22.97L24 6.56ZM22.4 9.84L14.4 9.84L14.4 8.2L22.4 8.2L22.4 9.84ZM14.44 2.21C14.54 1.87 14.85 1.64 15.2 1.64C15.64 1.64 16 2.01 16 2.46C16 2.7 15.9 2.93 15.72 3.09L13.6 4.92L14.44 2.21ZM8 2.46C8 2.01 8.36 1.64 8.8 1.64C9.15 1.64 9.46 1.87 9.56 2.21L10.4 4.92L8.28 3.09C8.1 2.93 8 2.7 8 2.46L8 2.46ZM9.6 8.2L9.6 9.84L1.6 9.84L1.6 8.2L9.6 8.2ZM1.6 21.33L1.6 11.48L9.6 11.48L9.6 21.33L1.6 21.33ZM12 23.22L11.2 24.04L11.2 9.15L12 8.46L12.8 9.15L12.8 24.04L12 23.22ZM14.4 21.33L14.4 11.48L22.4 11.48L22.4 21.33L14.4 21.33ZM16 18.05L20.8 18.05L20.8 19.69L16 19.69L16 18.05Z" />
</svg>