<svg xmlns="http://www.w3.org/2000/svg" viewBox="0 0 27 31" width="27" height="31">
	<style>
		tspan { white-space:pre }
		.shp0 { fill: #ffffff } 
	</style>
	<path id="Shape 28" class="shp0" d="M0 23.6C0.46 21.12 0.92 18.69 1.38 16.21C3.13 17.87 4.83 19.48 6.57 21.14C5.73 21.46 4.94 21.76 4.13 22.06C4.35 22.94 4.77 23.67 5.35 24.3C6.55 25.61 8.08 26.33 9.74 26.76C10.62 26.99 11.52 27.1 12.44 27.28C12.44 22.13 12.44 17.08 12.44 12C10.51 12 8.57 12 6.6 12C6.6 11.27 6.6 10.59 6.6 9.88C8.54 9.88 10.47 9.88 12.46 9.88C12.46 9.55 12.46 9.25 12.46 8.95C12.46 8.38 12.45 7.8 12.47 7.23C12.47 6.98 12.4 6.86 12.17 6.76C10.81 6.17 10 4.88 10.04 3.4C10.08 2 10.99 0.71 12.29 0.22C14.05 -0.44 16 0.43 16.7 2.19C17.41 3.97 16.6 6 14.87 6.75C14.62 6.86 14.52 6.97 14.53 7.25C14.55 8.11 14.54 8.97 14.54 9.86C16.5 9.86 18.45 9.86 20.41 9.86C20.41 10.57 20.41 11.25 20.41 11.97C18.46 11.97 16.52 11.97 14.56 11.97C14.56 17.06 14.56 22.11 14.56 27.26C15.38 27.12 16.19 27.02 16.98 26.83C18.63 26.44 20.16 25.78 21.4 24.56C22.11 23.88 22.62 23.07 22.88 22.06C22.07 21.76 21.28 21.46 20.43 21.13C22.17 19.48 23.87 17.87 25.62 16.21C26.08 18.69 26.54 21.11 27 23.6C26.26 23.32 25.57 23.07 24.91 22.82C24.59 23.47 24.33 24.11 23.97 24.69C22.8 26.54 21.07 27.64 19.1 28.4C17.82 28.88 16.5 29.14 15.16 29.3C15 29.32 14.81 29.42 14.71 29.55C14.3 30.01 13.92 30.49 13.5 31C13.09 30.5 12.72 30.03 12.32 29.58C12.2 29.44 12 29.32 11.82 29.3C9.87 29.07 8.01 28.6 6.28 27.65C4.35 26.57 2.88 25.08 2.19 22.89C2.19 22.88 2.16 22.86 2.12 22.82C1.44 23.07 0.74 23.32 0 23.6ZM14.7 5.23C15.47 4.67 15.77 3.71 15.45 2.82C15.14 1.91 14.27 1.34 13.32 1.41C12.41 1.49 11.65 2.18 11.46 3.13C11.3 3.95 11.68 4.87 12.32 5.21C13.12 4.36 13.87 4.36 14.7 5.23Z" />
</svg>